<svg width="238" height="209" viewBox="0 0 238 209" fill="none" xmlns="http://www.w3.org/2000/svg">
<g clip-path="url(#clip0_223_87)">
<path d="M236.104 206.011C235.688 206.592 235.268 207.169 234.852 207.741C233.657 208.564 232.239 209.003 230.788 209H7.21212C5.82552 209.001 4.46832 208.601 3.30485 207.847C2.91872 207.338 2.53695 206.825 2.15082 206.312L2.53694 206.1L115.721 143.409C116.725 142.854 117.853 142.562 119.001 142.56C120.149 142.559 121.278 142.848 122.284 143.4L235.722 205.799L236.104 206.011Z" fill="#7A8EFF"/>
<path d="M230.788 74.1887L132.695 17.5805C128.569 15.1995 123.89 13.9449 119.125 13.9426C114.361 13.9402 109.68 15.1902 105.552 17.5671L7.21212 74.1887C5.30018 74.1914 3.46732 74.9515 2.11537 76.3025C0.763424 77.6535 0.00270471 79.485 0 81.3956V201.793C0.00222762 203.704 0.76279 205.536 2.11484 206.887C3.46689 208.238 5.30003 208.998 7.21212 209H230.788C232.7 208.997 234.532 208.236 235.884 206.886C237.236 205.535 237.997 203.704 238 201.793V81.3956C237.997 79.485 237.237 77.6535 235.885 76.3025C234.533 74.9515 232.7 74.1914 230.788 74.1887ZM237.152 201.793C237.147 203.478 236.476 205.093 235.283 206.285C234.091 207.477 232.474 208.148 230.788 208.152H7.21212C5.52531 208.149 3.90846 207.478 2.71571 206.286C1.52295 205.094 0.85152 203.479 0.848485 201.793V81.3956C0.850537 79.7097 1.52165 78.0934 2.71462 76.9013C3.90759 75.7092 5.52501 75.0386 7.21212 75.0365L105.552 18.415C109.68 16.0381 114.361 14.7881 119.125 14.7904C123.89 14.7928 128.569 16.0474 132.695 18.4283L230.788 75.0365C232.475 75.0386 234.092 75.7092 235.285 76.9013C236.478 78.0934 237.149 79.7097 237.152 81.3956V201.793Z" fill="#7A8EFF"/>
<path d="M119.127 142.307C118.388 142.309 117.654 142.186 116.957 141.943L116.828 141.897L116.802 141.612C116.722 141.652 116.642 141.689 116.561 141.725L116.476 141.762L116.39 141.725C116.211 141.646 116.034 141.557 115.863 141.461L37.7576 97.6036V8.05477C37.7599 5.97545 38.5875 3.98196 40.0589 2.51166C41.5303 1.04135 43.5252 0.214309 45.6061 0.211975H192.394C194.475 0.214309 196.47 1.04135 197.941 2.51166C199.412 3.98196 200.24 5.97545 200.242 8.05477V97.7181L200.134 97.7789L122.392 141.461C121.394 142.017 120.27 142.308 119.127 142.307V142.307Z" fill="#F9F9FF"/>
<path d="M119.127 142.519C118.364 142.521 117.607 142.394 116.886 142.143L116.629 142.052L116.619 141.931L116.476 141.994L116.305 141.919C116.12 141.838 115.936 141.746 115.759 141.646L37.5455 97.7278V8.05477C37.5479 5.91925 38.3979 3.8719 39.909 2.36186C41.4202 0.85182 43.469 0.00241689 45.6061 0H192.394C194.531 0.00242585 196.58 0.851829 198.091 2.36187C199.602 3.8719 200.452 5.91925 200.455 8.05477V97.8421L122.496 141.646C121.466 142.22 120.306 142.52 119.127 142.519V142.519ZM117.425 141.426C118.984 141.874 120.658 141.687 122.08 140.907L199.606 97.3461V8.05477C199.604 6.14404 198.843 4.31219 197.491 2.9611C196.139 1.61001 194.306 0.850021 192.394 0.84787H45.6061C43.694 0.850012 41.8608 1.61 40.5087 2.96109C39.1566 4.31218 38.3961 6.14404 38.394 8.05477V97.2314L43.4805 100.086L116.175 140.907C116.274 140.963 116.374 141.015 116.476 141.064C116.578 141.015 116.678 140.963 116.777 140.907L117.348 140.585L117.425 141.426Z" fill="#7A8EFF"/>
<path d="M236.121 77.3173L205.333 94.6138L200.03 97.5941L122.288 141.276C121.322 141.815 120.233 142.096 119.127 142.095C118.412 142.097 117.702 141.978 117.027 141.743C116.84 141.683 116.655 141.612 116.476 141.531C116.302 141.454 116.132 141.37 115.967 141.276L43.2727 100.456L37.9697 97.4796L1.94307 77.2495C1.84511 77.1933 1.77325 77.1009 1.74308 76.9921C1.7129 76.8834 1.72685 76.7672 1.7819 76.6687C1.8371 76.5709 1.92886 76.4991 2.03702 76.4689C2.14518 76.4387 2.26091 76.4526 2.35882 76.5076L37.9697 96.5046L43.2727 99.4806L116.382 140.534C116.625 140.671 116.877 140.788 117.138 140.886C117.248 140.929 117.362 140.967 117.477 141.001C118.203 141.224 118.967 141.297 119.722 141.217C120.478 141.137 121.209 140.905 121.872 140.534L200.03 96.6233L205.333 93.643L235.705 76.5796C235.753 76.5524 235.807 76.5349 235.862 76.5282C235.917 76.5216 235.973 76.5258 236.027 76.5408C236.08 76.5557 236.13 76.5811 236.174 76.6154C236.218 76.6497 236.254 76.6923 236.282 76.7407C236.309 76.7892 236.327 76.8425 236.333 76.8977C236.34 76.9529 236.336 77.0088 236.321 77.0624C236.306 77.1159 236.28 77.166 236.246 77.2097C236.212 77.2535 236.169 77.29 236.121 77.3173V77.3173Z" fill="#7A8EFF"/>
<path d="M69.6075 27.9797H57.7287C56.8286 27.9797 55.9653 27.6224 55.3288 26.9864C54.6923 26.3504 54.3348 25.4877 54.3348 24.5883C54.3348 23.6888 54.6923 22.8261 55.3288 22.1901C55.9653 21.5541 56.8286 21.1968 57.7287 21.1968H69.6075C70.5076 21.1968 71.3709 21.5541 72.0074 22.1901C72.6439 22.8261 73.0014 23.6888 73.0014 24.5883C73.0014 25.4877 72.6439 26.3504 72.0074 26.9864C71.3709 27.6224 70.5076 27.9797 69.6075 27.9797Z" fill="#7A8EFF"/>
<path d="M83.6075 39.426H57.7287C56.8286 39.426 55.9653 39.0687 55.3288 38.4326C54.6923 37.7966 54.3348 36.934 54.3348 36.0345C54.3348 35.135 54.6923 34.2724 55.3288 33.6363C55.9653 33.0003 56.8286 32.643 57.7287 32.643H83.6075C84.5076 32.643 85.3709 33.0003 86.0074 33.6363C86.6439 34.2724 87.0015 35.135 87.0015 36.0345C87.0015 36.934 86.6439 37.7966 86.0074 38.4326C85.3709 39.0687 84.5076 39.426 83.6075 39.426Z" fill="#E0E3F4"/>
<path d="M155.909 69.9493H82.5152C81.615 69.9493 80.7518 69.592 80.1153 68.9559C79.4788 68.3199 79.1212 67.4573 79.1212 66.5578C79.1212 65.6583 79.4788 64.7957 80.1153 64.1597C80.7518 63.5236 81.615 63.1663 82.5152 63.1663H155.909C156.809 63.1663 157.672 63.5236 158.309 64.1597C158.945 64.7957 159.303 65.6583 159.303 66.5578C159.303 67.4573 158.945 68.3199 158.309 68.9559C157.672 69.592 156.809 69.9493 155.909 69.9493Z" fill="#7A8EFF"/>
<path d="M162.697 83.0913H75.303C74.4029 83.0913 73.5396 82.734 72.9031 82.098C72.2666 81.4619 71.9091 80.5993 71.9091 79.6998C71.9091 78.8004 72.2666 77.9377 72.9031 77.3017C73.5396 76.6657 74.4029 76.3083 75.303 76.3083H162.697C163.597 76.3083 164.46 76.6657 165.097 77.3017C165.733 77.9377 166.091 78.8004 166.091 79.6998C166.091 80.5993 165.733 81.4619 165.097 82.098C164.46 82.734 163.597 83.0913 162.697 83.0913Z" fill="#E0E3F4"/>
<path d="M162.697 95.8093H75.303C74.4029 95.8093 73.5396 95.452 72.9031 94.816C72.2666 94.18 71.9091 93.3173 71.9091 92.4178C71.9091 91.5184 72.2666 90.6557 72.9031 90.0197C73.5396 89.3837 74.4029 89.0264 75.303 89.0264H162.697C163.597 89.0264 164.46 89.3837 165.097 90.0197C165.733 90.6557 166.091 91.5184 166.091 92.4178C166.091 93.3173 165.733 94.18 165.097 94.816C164.46 95.452 163.597 95.8093 162.697 95.8093Z" fill="#E0E3F4"/>
</g>
<defs>
<clipPath id="clip0_223_87">
<rect width="238" height="209" fill="white"/>
</clipPath>
</defs>
</svg>
