<svg width="425" height="389" viewBox="0 0 425 389" fill="none" xmlns="http://www.w3.org/2000/svg">
<g clip-path="url(#clip0_203_18)">
<path d="M272.288 310.656L276.372 319.811C273.052 319.283 269.965 322.117 269.896 325.757C269.826 329.397 272.787 333.184 276.107 333.701C275.473 336.528 272.735 337.773 270.358 338.916C267.981 340.058 265.42 341.952 265.597 344.963C265.739 347.381 267.738 349.516 269.862 350.374C271.986 351.233 274.215 351.101 276.366 350.957C273.106 354.365 272.788 360.772 275.651 365.369C278.513 369.966 284.23 372.229 288.511 370.459C285.486 374.22 286.143 381.108 289.897 384.99C293.681 388.903 299.164 389.282 303.958 388.869C316.166 387.838 327.798 383.229 337.399 375.62C341.064 372.709 344.487 369.285 346.578 364.819C348.669 360.353 349.285 354.698 347.337 349.616C347.862 355.983 354.237 361.011 359.971 361.292C365.705 361.574 370.712 358.345 374.967 354.663C380.625 349.766 385.863 342.902 385.087 334.433C384.702 330.24 382.87 326.208 381.074 322.302L377.591 314.73C376.185 311.673 374.747 308.564 372.63 305.999C370.514 303.433 367.576 301.448 364.637 301.466C365.309 298.397 365.984 295.212 365.421 291.951C364.858 288.689 362.701 285.312 359.767 284.548C356.034 283.576 352.87 287.02 349.116 286.695C345.504 286.383 342.518 282.758 339.01 281.322C337.566 280.697 335.971 280.508 334.42 280.776C332.869 281.044 331.431 281.758 330.28 282.832C328.056 285.002 327.129 288.669 327.927 292.138C328.626 295.178 330.487 297.859 331.616 300.79C332.745 303.721 332.92 307.49 330.751 309.091C328.135 311.023 324.151 308.394 322.107 305.214C320.062 302.034 318.888 298.183 316.303 295.508C313.251 292.352 308.475 291.612 305.333 293.809C302.191 296.007 300.99 300.928 302.574 305.111C303.869 308.531 306.835 311.991 305.807 315.212C304.719 318.616 299.961 318.185 297.09 315.78C294.22 313.374 292.314 309.75 289.479 307.29C286.6 304.792 282.84 303.698 279.539 304.397C277.864 304.785 276.314 305.589 275.033 306.734C273.751 307.879 272.778 309.328 272.204 310.948" fill="#E6E6E6"/>
<path d="M338.409 284.93L329.935 288.866C328.661 289.495 327.217 289.689 325.822 289.42C324.592 289.129 323.76 288.377 323.542 287.356L321.57 278.15C321.198 276.413 322.637 274.358 324.991 273.265L329.671 271.091C332.025 269.997 334.524 270.223 335.611 271.628L341.378 279.072C342.018 279.897 342.056 281.017 341.485 282.145C340.792 283.384 339.711 284.362 338.409 284.93Z" fill="#3F3D56"/>
<path d="M75.6542 114.77C83.6206 92.9719 96.0526 73.0775 112.154 56.3605C125.815 42.1831 147.076 42.7722 147.076 42.7722L147.197 42.6215C152.314 36.3132 159.181 31.6561 166.935 29.2344C174.689 26.8126 182.987 26.7341 190.785 29.0088C192.813 29.5903 194.372 29.8481 195.113 29.589C208.633 24.8586 207.998 14.1816 219.662 5.58029C240.086 -9.48011 307.831 7.77129 317.383 35.4842C325.125 57.9449 359.685 68.8315 372.596 86.0121C374.615 88.6985 376.596 91.416 378.539 94.1647C379.45 95.4417 380.35 96.7283 381.241 98.0245C390.389 111.268 398.595 125.138 405.8 139.53C410.524 148.934 414.631 158.635 418.092 168.573C431.557 207.926 426.953 237.245 389.825 230.002C385.43 229.142 381.141 228.373 376.957 227.694C370.898 226.706 365.051 225.894 359.415 225.257C351.826 224.395 344.605 223.829 337.754 223.561C335.451 223.469 333.189 223.407 330.97 223.375C298.158 222.92 273.82 229.094 255.278 238.678C252.135 240.298 249.157 242.013 246.343 243.821C242.045 246.567 237.941 249.607 234.06 252.917C228.69 257.524 223.738 262.597 219.262 268.076L219.016 268.377C197.329 294.897 190.192 324.255 175.106 329.425C110.62 351.525 69.835 271.41 65.6524 193.039C65.4412 189.089 65.3246 185.152 65.3024 181.225C65.2893 179.47 65.298 177.719 65.3283 175.974C65.3945 171.419 65.5953 166.894 65.9317 162.423C66.0573 160.714 66.203 159.014 66.3687 157.323C66.5514 155.499 66.7502 153.686 66.9799 151.885C68.6203 138.68 71.4902 126.116 75.6542 114.77Z" fill="#7A8EFF"/>
<path d="M275.53 157.889C270.38 160.286 270.295 171.022 271.91 174.501L274.836 180.798L293.491 172.134L290.564 165.837C288.946 162.359 280.684 155.5 275.53 157.889Z" fill="#3F3D56"/>
<path d="M225.401 248.295C225.073 248.295 224.749 248.216 224.458 248.064C224.167 247.912 223.917 247.693 223.729 247.424C223.54 247.155 223.42 246.845 223.377 246.519C223.335 246.194 223.371 245.863 223.484 245.555C223.575 245.303 223.716 245.072 223.897 244.875C224.078 244.677 224.297 244.518 224.541 244.406L320.876 199.659C321.119 199.547 321.382 199.483 321.65 199.471C321.917 199.46 322.184 199.501 322.436 199.593C322.687 199.685 322.918 199.826 323.116 200.007C323.313 200.188 323.472 200.406 323.585 200.649C323.813 201.139 323.836 201.7 323.65 202.208C323.465 202.715 323.085 203.129 322.595 203.357H322.595L226.259 248.104C225.99 248.229 225.697 248.295 225.401 248.295Z" fill="#3F3D56"/>
<path d="M300.757 176.149L273.22 188.94L316.416 281.887L343.954 269.097L300.757 176.149Z" fill="#E6E6E6"/>
<path d="M197.384 59.144C192.234 61.5411 192.149 72.2778 193.764 75.7566L196.691 82.0536L215.345 73.3889L212.419 67.092C210.801 63.6146 202.538 56.7551 197.384 59.144Z" fill="#3F3D56"/>
<path d="M312.776 295.615L304.302 299.551C303.028 300.18 301.584 300.375 300.189 300.105C298.959 299.815 298.127 299.063 297.909 298.042L295.937 288.835C295.565 287.098 297.004 285.043 299.358 283.95L304.038 281.776C306.392 280.683 308.891 280.908 309.978 282.313L315.745 289.757C316.385 290.582 316.423 291.702 315.852 292.83C315.158 294.069 314.078 295.047 312.776 295.615Z" fill="#3F3D56"/>
<path d="M286.723 308.537L278.249 312.473C276.976 313.102 275.531 313.297 274.136 313.028C272.906 312.737 272.075 311.985 271.856 310.964L269.884 301.757C269.512 300.02 270.951 297.965 273.305 296.872L277.985 294.698C280.339 293.605 282.838 293.831 283.926 295.235L289.692 302.679C290.332 303.504 290.371 304.625 289.8 305.752C289.106 306.991 288.025 307.97 286.723 308.537Z" fill="#3F3D56"/>
<path d="M229.96 93.2153L202.422 106.006L289.739 293.888L317.276 281.098L229.96 93.2153Z" fill="#E6E6E6"/>
<path d="M258.532 190.068L255.442 183.271L257.221 182.451L260.301 189.227L304.908 288.103L303.131 288.928" fill="#3F3D56"/>
<path d="M293.383 184.418L290.293 177.621L292.072 176.801L295.152 183.577L339.759 282.453L337.982 283.278" fill="#3F3D56"/>
<path d="M242.957 108.251L205.645 125.582C203.27 121.887 196.109 102.954 197.717 97.3364L196.51 91.9795L222.273 80.013L225.721 84.2539C230.84 85.824 240.805 103.608 242.957 108.251Z" fill="#E6E6E6"/>
<path d="M223.349 80.2422L196.763 92.591C195.782 93.0467 194.737 92.8792 194.429 92.2167C194.385 92.1212 194.358 92.0188 194.348 91.914L192.972 77.2393C192.913 76.6109 193.451 75.8988 194.273 75.5173L211.904 67.3279C212.725 66.9463 213.616 66.9947 214.059 67.445L224.39 77.9602C224.918 78.4981 224.631 79.4187 223.749 80.0165C223.622 80.1023 223.488 80.1778 223.349 80.2422Z" fill="#E6E6E6"/>
<path d="M244.202 195.213C243.914 195.214 243.627 195.18 243.347 195.112C242.953 195.03 242.583 194.86 242.264 194.613C241.946 194.366 241.689 194.049 241.512 193.688L225.258 158.713C224.586 157.266 225.489 155.414 227.271 154.586L251.072 143.531C252.854 142.702 254.852 143.207 255.525 144.655L271.779 179.629C271.942 179.998 272.017 180.398 272.001 180.801C271.985 181.203 271.876 181.596 271.685 181.95C271.267 182.751 270.591 183.388 269.766 183.757L245.966 194.811C245.414 195.072 244.812 195.209 244.202 195.213Z" fill="#3F3D56"/>
<path d="M247.456 200.507L219.919 213.298L263.116 306.245L290.653 293.454L247.456 200.507Z" fill="#E6E6E6"/>
<path d="M213.531 81.7753L205.455 85.5262C203.897 86.2501 201.795 85.0439 200.769 82.838C199.744 80.632 200.178 78.2479 201.736 77.5241L209.812 73.7731C211.37 73.0493 213.473 74.2554 214.498 76.4614C215.523 78.6674 215.089 81.0515 213.531 81.7753Z" fill="#3F3D56"/>
<path d="M222.766 181.997C217.616 184.394 217.532 195.13 219.146 198.609L222.073 204.906L240.727 196.241L237.801 189.944C236.183 186.467 227.92 179.608 222.766 181.997Z" fill="#3F3D56"/>
<path d="M137.218 160.565C135.4 161.777 133.538 158.893 135.392 157.735C137.211 156.524 139.072 159.407 137.218 160.565Z" fill="#E6E6E6"/>
<path d="M326.543 119.132C324.724 120.344 322.863 117.46 324.716 116.303C326.535 115.091 328.397 117.975 326.543 119.132Z" fill="#E6E6E6"/>
<path d="M197.501 152.09C195.682 153.302 193.82 150.418 195.674 149.26C197.493 148.049 199.355 150.933 197.501 152.09Z" fill="#E6E6E6"/>
<path d="M137.218 265.089C135.4 266.3 133.538 263.417 135.392 262.259C137.211 261.047 139.072 263.931 137.218 265.089Z" fill="#E6E6E6"/>
<path d="M229.997 29.2045C228.178 30.4161 226.316 27.5325 228.17 26.3748C229.989 25.1633 231.851 28.0469 229.997 29.2045Z" fill="#E6E6E6"/>
<path d="M140.515 84.7621C138.696 85.9736 136.835 83.09 138.689 81.9323C140.507 80.7209 142.369 83.6044 140.515 84.7621Z" fill="#E6E6E6"/>
<path d="M269.217 68.8348L268.06 68.581L268.313 67.4238L267.542 67.2547L267.288 68.412L266.131 68.1587L265.962 68.9299L267.119 69.1837L266.866 70.3405L267.637 70.5096L267.891 69.3523L269.048 69.606L269.217 68.8348Z" fill="#E6E6E6"/>
<path d="M80.7888 165.25L79.6317 164.996L79.885 163.839L79.1136 163.67L78.8598 164.827L77.7022 164.574L77.5331 165.345L78.6907 165.599L78.4373 166.756L79.2087 166.924L79.4626 165.768L80.6197 166.021L80.7888 165.25Z" fill="#E6E6E6"/>
<path d="M318.098 214.431C317.135 214.877 316.034 214.923 315.037 214.559C314.041 214.195 313.229 213.45 312.781 212.488L308.018 202.241C307.572 201.278 307.527 200.178 307.892 199.182C308.257 198.187 309.002 197.376 309.964 196.929C310.926 196.483 312.026 196.436 313.023 196.799C314.019 197.163 314.831 197.907 315.279 198.868L320.042 209.116C320.488 210.079 320.534 211.179 320.169 212.175C319.805 213.172 319.06 213.983 318.098 214.431Z" fill="#3F3D56"/>
<path d="M237.093 252.098C236.13 252.544 235.03 252.589 234.033 252.225C233.036 251.861 232.225 251.116 231.776 250.154L227.014 239.907C226.568 238.944 226.522 237.844 226.887 236.849C227.252 235.853 227.997 235.042 228.959 234.595C229.922 234.149 231.022 234.102 232.018 234.465C233.015 234.829 233.826 235.573 234.275 236.534L239.037 246.782C239.483 247.745 239.529 248.845 239.165 249.842C238.8 250.838 238.055 251.649 237.093 252.098Z" fill="#3F3D56"/>
<path d="M310.761 192.041L278.828 206.874C276.795 203.712 270.666 187.508 272.042 182.7L272.717 177.322L291.785 167.97L296.01 171.503C301.963 169.491 310.713 184.238 310.761 192.041Z" fill="#E6E6E6"/>
<path d="M295.936 191.013L287.86 194.764C286.302 195.488 283.931 193.703 282.575 190.787C281.22 187.87 281.385 184.908 282.943 184.184L291.019 180.433C292.577 179.709 294.948 181.493 296.303 184.41C297.659 187.327 297.494 190.289 295.936 191.013Z" fill="#3F3D56"/>
<path d="M227.449 210.314L224.359 203.517L226.138 202.696L229.218 209.472L273.825 308.348L272.048 309.174" fill="#3F3D56"/>
<path d="M257.998 216.149L226.064 230.982C221.353 228.55 214.153 212.638 219.279 206.808L219.954 201.43L239.021 192.078L243.246 195.611C247.627 196.955 256.156 212.175 257.998 216.149Z" fill="#E6E6E6"/>
<path d="M242.515 213.707L234.439 217.458C232.881 218.181 230.657 216.714 229.483 214.187C228.309 211.661 228.621 209.015 230.18 208.292L238.255 204.541C239.814 203.817 242.037 205.284 243.211 207.811C244.386 210.338 244.073 212.983 242.515 213.707Z" fill="#3F3D56"/>
<path d="M80.6709 144.942C107.461 144.942 129.179 123.229 129.179 96.4464C129.179 69.6633 107.461 47.9513 80.6709 47.9513C53.8804 47.9513 32.1624 69.6633 32.1624 96.4464C32.1624 123.229 53.8804 144.942 80.6709 144.942Z" fill="#FF6584"/>
<path opacity="0.3" d="M279.562 146.956L309.041 60.8849L276.672 145.926C276.512 146.128 276.402 146.365 276.352 146.618C276.302 146.87 276.313 147.131 276.384 147.379C276.455 147.626 276.584 147.854 276.76 148.041C276.936 148.229 277.155 148.372 277.397 148.459C277.64 148.545 277.9 148.573 278.155 148.539C278.411 148.505 278.655 148.411 278.866 148.264C279.078 148.117 279.251 147.922 279.373 147.694C279.494 147.467 279.559 147.214 279.562 146.956H279.562Z" fill="#F0F0F0"/>
<path d="M354.705 95.6521C348.935 97.5694 342.537 99.4529 335.513 101.302C299.181 110.865 250.482 118.325 198.387 122.307C146.292 126.29 97.0241 126.318 59.6603 122.389C41.4591 120.475 27.063 117.722 16.8721 114.206C6.08276 110.484 0.413475 105.998 0.021507 100.875C-0.741791 90.8937 18.9599 82.1086 35.622 76.4965L36.0733 77.8351C13.1918 85.5419 0.888773 93.6862 1.43047 100.767C2.12009 109.787 23.3979 117.155 59.808 120.985C97.0898 124.905 146.266 124.875 198.279 120.899C250.292 116.923 298.902 109.478 335.154 99.9364C370.557 90.6185 390.468 80.1008 389.778 71.0816C389.205 63.5932 374.44 57.1873 348.203 53.0431L348.423 51.648C367.488 54.6593 390.382 60.4563 391.187 70.9739C391.579 76.0974 386.657 81.3921 376.559 86.7108C370.803 89.7426 363.489 92.7337 354.705 95.6521Z" fill="#3F3D56"/>
<path d="M368.959 181.663C371.743 181.663 374 179.407 374 176.624C374 173.841 371.743 171.585 368.959 171.585C366.176 171.585 363.919 173.841 363.919 176.624C363.919 179.407 366.176 181.663 368.959 181.663Z" fill="#FF6584"/>
<path d="M400.984 318.203C403.768 318.203 406.025 315.947 406.025 313.164C406.025 310.381 403.768 308.125 400.984 308.125C398.201 308.125 395.944 310.381 395.944 313.164C395.944 315.947 398.201 318.203 400.984 318.203Z" fill="#F2F2F2"/>
<path d="M229.085 348.884C234.513 348.884 238.912 344.485 238.912 339.059C238.912 333.633 234.513 329.235 229.085 329.235C223.658 329.235 219.258 333.633 219.258 339.059C219.258 344.485 223.658 348.884 229.085 348.884Z" fill="#F2F2F2"/>
<path d="M154.203 218.858C156.987 218.858 159.244 216.602 159.244 213.819C159.244 211.036 156.987 208.78 154.203 208.78C151.419 208.78 149.163 211.036 149.163 213.819C149.163 216.602 151.419 218.858 154.203 218.858Z" fill="#3F3D56"/>
<path d="M323.654 225.417L345.401 231.044L358.739 257.236L336.189 258.12L323.654 225.417Z" fill="#E6E6E6"/>
<path d="M273.459 187.659L285.428 199.631L315.826 265.338L310.229 270.172L273.459 187.659Z" fill="#CCCCCC"/>
<path d="M247.434 198.512L248.373 215.413L277.066 281.881L284.401 280.936L247.434 198.512Z" fill="#CCCCCC"/>
<path d="M246.651 266.788L234.939 285.951L243.573 314.045L260.392 299.003L246.651 266.788Z" fill="#E6E6E6"/>
<path d="M350.111 278.563C344.03 278.563 337.365 278.333 330.116 277.874C292.622 275.494 244.055 267.218 193.362 254.572C142.669 241.926 95.9066 226.419 61.6891 210.91C45.0207 203.355 32.2279 196.203 23.6662 189.653C14.6017 182.719 10.6368 176.675 11.8811 171.69C14.3055 161.977 35.7732 159.852 53.3554 159.78L53.3614 161.193C29.2163 161.292 14.972 165.141 13.2521 172.032C11.0613 180.808 28.9286 194.51 62.2725 209.623C96.4148 225.099 143.091 240.575 193.704 253.201C244.316 265.827 292.794 274.089 330.206 276.464C366.742 278.784 388.955 275.081 391.145 266.305C392.964 259.018 380.973 248.284 357.383 236.078L358.032 234.824C375.173 243.692 395.071 256.412 392.516 266.647C391.272 271.632 384.931 275.105 373.671 276.969C367.252 278.031 359.368 278.563 350.111 278.563Z" fill="#3F3D56"/>
</g>
<defs>
<clipPath id="clip0_203_18">
<rect width="425" height="389" fill="white"/>
</clipPath>
</defs>
</svg>
